<?xml version="1.0" standalone="no"?><svg xmlns="http://www.w3.org/2000/svg" viewBox="0 0 1440 320"><path fill="#e7008a" fill-opacity="0.5" d="M0,288L0,256L36.9,256L36.9,256L73.8,256L73.8,96L110.8,96L110.8,96L147.7,96L147.7,192L184.6,192L184.6,0L221.5,0L221.5,64L258.5,64L258.5,96L295.4,96L295.4,32L332.3,32L332.3,128L369.2,128L369.2,192L406.2,192L406.2,64L443.1,64L443.1,288L480,288L480,288L516.9,288L516.9,160L553.8,160L553.8,32L590.8,32L590.8,160L627.7,160L627.7,64L664.6,64L664.6,192L701.5,192L701.5,288L738.5,288L738.5,160L775.4,160L775.4,256L812.3,256L812.3,32L849.2,32L849.2,224L886.2,224L886.2,192L923.1,192L923.1,288L960,288L960,96L996.9,96L996.9,256L1033.8,256L1033.8,256L1070.8,256L1070.8,160L1107.7,160L1107.7,96L1144.6,96L1144.6,192L1181.5,192L1181.5,32L1218.5,32L1218.5,96L1255.4,96L1255.4,128L1292.3,128L1292.3,96L1329.2,96L1329.2,288L1366.2,288L1366.2,96L1403.1,96L1403.1,224L1440,224L1440,0L1403.1,0L1403.1,0L1366.2,0L1366.2,0L1329.2,0L1329.2,0L1292.3,0L1292.3,0L1255.4,0L1255.4,0L1218.5,0L1218.5,0L1181.5,0L1181.5,0L1144.6,0L1144.6,0L1107.7,0L1107.7,0L1070.8,0L1070.8,0L1033.8,0L1033.8,0L996.9,0L996.9,0L960,0L960,0L923.1,0L923.1,0L886.2,0L886.2,0L849.2,0L849.2,0L812.3,0L812.3,0L775.4,0L775.4,0L738.5,0L738.5,0L701.5,0L701.5,0L664.6,0L664.6,0L627.7,0L627.7,0L590.8,0L590.8,0L553.8,0L553.8,0L516.9,0L516.9,0L480,0L480,0L443.1,0L443.1,0L406.2,0L406.2,0L369.2,0L369.2,0L332.3,0L332.3,0L295.4,0L295.4,0L258.5,0L258.5,0L221.5,0L221.5,0L184.6,0L184.6,0L147.7,0L147.7,0L110.8,0L110.8,0L73.8,0L73.8,0L36.9,0L36.9,0L0,0L0,0Z"></path></svg>