<?xml version="1.0" standalone="no"?><svg xmlns="http://www.w3.org/2000/svg" viewBox="0 0 1440 320"><path fill="#e7008a" fill-opacity="0.5" d="M0,288L0,256L36.9,256L36.9,256L73.8,256L73.8,96L110.8,96L110.8,96L147.7,96L147.7,192L184.6,192L184.6,0L221.5,0L221.5,64L258.5,64L258.5,96L295.4,96L295.4,32L332.3,32L332.3,128L369.2,128L369.2,192L406.2,192L406.2,64L443.1,64L443.1,288L480,288L480,288L516.9,288L516.9,160L553.8,160L553.8,32L590.8,32L590.8,160L627.7,160L627.7,64L664.6,64L664.6,192L701.5,192L701.5,288L738.5,288L738.5,160L775.4,160L775.4,256L812.3,256L812.3,32L849.2,32L849.2,224L886.2,224L886.2,192L923.1,192L923.1,288L960,288L960,96L996.9,96L996.9,256L1033.8,256L1033.8,256L1070.8,256L1070.8,160L1107.7,160L1107.7,96L1144.6,96L1144.6,192L1181.5,192L1181.5,32L1218.5,32L1218.5,96L1255.4,96L1255.4,128L1292.3,128L1292.3,96L1329.2,96L1329.2,288L1366.2,288L1366.2,96L1403.1,96L1403.1,224L1440,224L1440,320L1403.1,320L1403.1,320L1366.2,320L1366.2,320L1329.2,320L1329.2,320L1292.3,320L1292.3,320L1255.4,320L1255.4,320L1218.5,320L1218.5,320L1181.5,320L1181.5,320L1144.6,320L1144.6,320L1107.7,320L1107.7,320L1070.8,320L1070.8,320L1033.8,320L1033.8,320L996.9,320L996.9,320L960,320L960,320L923.1,320L923.1,320L886.2,320L886.2,320L849.2,320L849.2,320L812.3,320L812.3,320L775.4,320L775.4,320L738.5,320L738.5,320L701.5,320L701.5,320L664.6,320L664.6,320L627.7,320L627.7,320L590.8,320L590.8,320L553.8,320L553.8,320L516.9,320L516.9,320L480,320L480,320L443.1,320L443.1,320L406.2,320L406.2,320L369.2,320L369.2,320L332.3,320L332.3,320L295.4,320L295.4,320L258.5,320L258.5,320L221.5,320L221.5,320L184.6,320L184.6,320L147.7,320L147.7,320L110.8,320L110.8,320L73.8,320L73.8,320L36.9,320L36.9,320L0,320L0,320Z"></path></svg>